<?xml version="1.0" encoding="utf-8"?>
<svg width="139px" height="157px" viewBox="0 0 139 157" version="1.1" xmlns:xlink="http://www.w3.org/1999/xlink" xmlns="http://www.w3.org/2000/svg">
  <desc>Created with Lunacy</desc>
  <defs>
    <path d="M0 13C0 5.8203 6.26801 0 14 0C21.732 0 28 5.8203 28 13C28 20.1797 21.732 26 14 26C6.26801 26 0 20.1797 0 13Z" id="path_1" />
    <clipPath id="mask_1">
      <use xlink:href="#path_1" />
    </clipPath>
  </defs>
  <path d="M10 0L129 0Q129.256 0 129.511 0.0116575Q129.765 0.023315 130.017 0.0466062Q130.269 0.0698974 130.519 0.104775Q130.768 0.139652 131.014 0.186045Q131.261 0.232437 131.503 0.29025Q131.745 0.348063 131.984 0.417178Q132.222 0.486294 132.455 0.566571Q132.689 0.646847 132.917 0.738122Q133.145 0.829396 133.367 0.931482Q133.59 1.03357 133.806 1.14626Q134.023 1.25895 134.232 1.38201Q134.442 1.50507 134.645 1.63826Q134.848 1.77144 135.043 1.91448Q135.238 2.05751 135.426 2.21011Q135.613 2.3627 135.793 2.52454Q135.972 2.68638 136.143 2.85714Q136.314 3.0279 136.475 3.20723Q136.637 3.38656 136.79 3.57409Q136.943 3.76162 137.086 3.95697Q137.229 4.15232 137.362 4.3551Q137.495 4.55787 137.618 4.76765Q137.741 4.97743 137.854 5.1938Q137.966 5.41016 138.069 5.63266Q138.171 5.85516 138.262 6.08335Q138.353 6.31153 138.433 6.54494Q138.514 6.77835 138.583 7.01649Q138.652 7.25464 138.71 7.49705Q138.768 7.73946 138.814 7.98563Q138.86 8.2318 138.895 8.48123Q138.93 8.73066 138.953 8.98284Q138.977 9.23502 138.988 9.48944Q139 9.74386 139 10L139 147Q139 147.256 138.988 147.511Q138.977 147.765 138.953 148.017Q138.93 148.269 138.895 148.519Q138.86 148.768 138.814 149.014Q138.768 149.261 138.71 149.503Q138.652 149.745 138.583 149.984Q138.514 150.222 138.433 150.455Q138.353 150.688 138.262 150.917Q138.171 151.145 138.069 151.367Q137.966 151.59 137.854 151.806Q137.741 152.023 137.618 152.232Q137.495 152.442 137.362 152.645Q137.229 152.848 137.086 153.043Q136.943 153.238 136.79 153.426Q136.637 153.613 136.475 153.793Q136.314 153.972 136.143 154.143Q135.972 154.314 135.793 154.475Q135.613 154.637 135.426 154.79Q135.238 154.942 135.043 155.086Q134.848 155.229 134.645 155.362Q134.442 155.495 134.232 155.618Q134.023 155.741 133.806 155.854Q133.59 155.966 133.367 156.069Q133.145 156.171 132.917 156.262Q132.689 156.353 132.455 156.433Q132.222 156.514 131.984 156.583Q131.745 156.652 131.503 156.71Q131.261 156.768 131.014 156.814Q130.768 156.86 130.519 156.895Q130.269 156.93 130.017 156.953Q129.765 156.977 129.511 156.988Q129.256 157 129 157L10 157Q9.74386 157 9.48944 156.988Q9.23502 156.977 8.98284 156.953Q8.73066 156.93 8.48123 156.895Q8.2318 156.86 7.98563 156.814Q7.73946 156.768 7.49705 156.71Q7.25464 156.652 7.01649 156.583Q6.77835 156.514 6.54494 156.433Q6.31153 156.353 6.08335 156.262Q5.85516 156.171 5.63266 156.069Q5.41016 155.966 5.1938 155.854Q4.97743 155.741 4.76765 155.618Q4.55787 155.495 4.3551 155.362Q4.15232 155.229 3.95697 155.086Q3.76162 154.942 3.57409 154.79Q3.38656 154.637 3.20723 154.475Q3.0279 154.314 2.85714 154.143Q2.68638 153.972 2.52454 153.793Q2.3627 153.613 2.21011 153.426Q2.05751 153.238 1.91448 153.043Q1.77144 152.848 1.63826 152.645Q1.50507 152.442 1.38201 152.232Q1.25895 152.023 1.14626 151.806Q1.03357 151.59 0.931482 151.367Q0.829396 151.145 0.738122 150.917Q0.646847 150.688 0.566571 150.455Q0.486294 150.222 0.417178 149.984Q0.348063 149.745 0.29025 149.503Q0.232437 149.261 0.186045 149.014Q0.139652 148.768 0.104775 148.519Q0.0698974 148.269 0.0466062 148.017Q0.023315 147.765 0.0116575 147.511Q0 147.256 0 147L0 10Q0 9.74386 0.0116575 9.48944Q0.023315 9.23502 0.0466062 8.98284Q0.0698974 8.73066 0.104775 8.48123Q0.139652 8.2318 0.186045 7.98563Q0.232437 7.73946 0.29025 7.49705Q0.348063 7.25464 0.417178 7.01649Q0.486294 6.77835 0.566571 6.54494Q0.646847 6.31153 0.738122 6.08335Q0.829396 5.85516 0.931482 5.63266Q1.03357 5.41016 1.14626 5.1938Q1.25895 4.97743 1.38201 4.76765Q1.50507 4.55787 1.63826 4.3551Q1.77144 4.15232 1.91448 3.95697Q2.05751 3.76162 2.21011 3.57409Q2.3627 3.38656 2.52454 3.20723Q2.68638 3.0279 2.85714 2.85714Q3.0279 2.68638 3.20723 2.52454Q3.38656 2.3627 3.57409 2.21011Q3.76162 2.05751 3.95697 1.91448Q4.15232 1.77144 4.3551 1.63826Q4.55787 1.50507 4.76765 1.38201Q4.97743 1.25895 5.1938 1.14626Q5.41016 1.03357 5.63266 0.931482Q5.85516 0.829396 6.08335 0.738122Q6.31153 0.646847 6.54494 0.566571Q6.77835 0.486294 7.01649 0.417178Q7.25464 0.348063 7.49705 0.29025Q7.73946 0.232437 7.98563 0.186045Q8.2318 0.139652 8.48123 0.104775Q8.73066 0.0698974 8.98284 0.0466062Q9.23502 0.023315 9.48944 0.0116575Q9.74386 0 10 0Z" id="Rectangle-copy" fill="#EEE5E5" stroke="#808080" stroke-opacity="0.419607848" stroke-width="2" />
  <path d="M0 0L96.4824 0L96.4824 2.81362L0 2.81362L0 0Z" transform="translate(21.25882 137.8674)" id="Rectangle-copy-copy-copy-copy-copy-copy-copy" fill="none" stroke="#808080" stroke-opacity="0.368627459" stroke-width="1" />
  <path d="M0 0L96.4824 0L96.4824 2.81362L0 2.81362L0 0Z" transform="translate(21 120)" id="Rectangle-copy-copy-copy-copy-copy-copy-copy-copy" fill="none" stroke="#808080" stroke-opacity="0.368627459" stroke-width="1" />
  <path d="M0 0L96.4824 0L96.4824 2.81362L0 2.81362L0 0Z" transform="translate(21 102)" id="Rectangle-copy-copy-copy-copy-copy-copy-copy-copy-copy" fill="none" stroke="#808080" stroke-opacity="0.368627459" stroke-width="1" />
  <path d="M0 0L69.2274 0L69.2274 2.81362L0 2.81362L0 0Z" transform="translate(21.25882 31.51254)" id="Rectangle-copy-copy-copy-copy-copy-copy-copy-copy-copy-copy-copy-copy-copy" fill="none" stroke="#808080" stroke-opacity="0.368627459" stroke-width="1" />
  <path d="M0 0L86.1255 0L86.1255 2.81362L0 2.81362L0 0Z" transform="translate(21 52)" id="Rectangle-copy-copy-copy-copy-copy-copy-copy-copy-copy-copy-copy-copy-copy" fill="none" stroke="#808080" stroke-opacity="0.368627459" stroke-width="1" />
  <g id="No-Files-To-Display" transform="translate(21 71)">
    <path d="M27.5273 3.31836L28.0664 3.31836L28.0664 12.2012L27.5273 12.2012L27.5273 3.31836ZM82.6113 3.31836L82.0723 3.31836L82.0723 12.2012L82.6113 12.2012L82.6113 3.31836ZM2.01563 5.41016L7.01953 12.2012L7.42969 12.2012L7.42969 3.79883L6.84961 3.79883L6.84961 10.3672Q6.84961 10.6602 6.87891 11.0703L6.84961 11.0703Q6.65625 10.7539 6.49219 10.5313L1.52344 3.79883L1.07813 3.79883L1.07813 12.2012L1.6582 12.2012L1.6582 5.25195Q1.6582 5.03516 1.64648 4.88281L1.66992 4.88281L1.74609 5Q1.86328 5.20508 2.01563 5.41016ZM20.1855 4.33203L20.1855 7.75977L23.291 7.75977L23.291 8.28711L20.1855 8.28711L20.1855 12.2012L19.6055 12.2012L19.6055 3.79883L23.5313 3.79883L23.5313 4.33203L20.1855 4.33203ZM25.0195 4.56055Q25.1543 4.68945 25.3301 4.68945Q25.5176 4.68945 25.6523 4.55469Q25.7871 4.41992 25.7871 4.23242Q25.7871 4.0332 25.6494 3.91602Q25.5117 3.79883 25.3301 3.79883Q25.1602 3.79883 25.0225 3.91895Q24.8848 4.03906 24.8848 4.23242Q24.8848 4.43164 25.0195 4.56055ZM46.3887 12.2012L46.3887 4.33203L48.8145 4.33203L48.8145 3.79883L43.3887 3.79883L43.3887 4.33203L45.8145 4.33203L45.8145 12.2012L46.3887 12.2012ZM60.2637 3.79883L60.2637 12.2012L62.2441 12.2012Q64.3008 12.2012 65.4697 11.0029Q66.6387 9.80469 66.6387 7.88281Q66.6387 5.88477 65.5488 4.8418Q64.459 3.79883 62.3672 3.79883L60.2637 3.79883ZM68.4961 4.68945Q68.3203 4.68945 68.1855 4.56055Q68.0508 4.43164 68.0508 4.23242Q68.0508 4.03906 68.1885 3.91895Q68.3262 3.79883 68.4961 3.79883Q68.6777 3.79883 68.8154 3.91602Q68.9531 4.0332 68.9531 4.23242Q68.9531 4.41992 68.8184 4.55469Q68.6836 4.68945 68.4961 4.68945ZM60.8438 11.6738L60.8438 4.33203L62.2793 4.33203Q66.0352 4.33203 66.0352 7.90625Q66.0352 9.73438 65.0332 10.7041Q64.0313 11.6738 62.1621 11.6738L60.8438 11.6738ZM9.7998 11.4834Q10.5645 12.3477 11.877 12.3477Q13.1953 12.3477 13.9541 11.4805Q14.7129 10.6133 14.7129 9.21289Q14.7129 7.73047 13.9688 6.89258Q13.2246 6.05469 11.9414 6.05469Q10.6348 6.05469 9.83496 6.89844Q9.03516 7.74219 9.03516 9.23633Q9.03516 10.6191 9.7998 11.4834ZM30.6885 11.1582Q30.1172 10.4609 30.1172 9.22461L34.5586 9.22461L34.5586 8.98438Q34.5586 7.625 33.9609 6.83984Q33.3633 6.05469 32.2441 6.05469Q31.0488 6.05469 30.3018 6.9541Q29.5547 7.85352 29.5547 9.16602Q29.5547 10.6836 30.2695 11.5156Q30.9844 12.3477 32.1445 12.3477Q33.293 12.3477 34.2246 11.6855L34.2246 11.1113Q33.2637 11.8555 32.2559 11.8555Q31.2598 11.8555 30.6885 11.1582ZM35.7363 11.9375L35.7363 11.2871Q36.041 11.5508 36.4746 11.7031Q36.9082 11.8555 37.2246 11.8555Q38.6367 11.8555 38.6367 10.7012Q38.6367 10.3027 38.3262 10.0215Q38.0156 9.74023 37.3184 9.44141Q36.457 9.06641 36.1084 8.66504Q35.7598 8.26367 35.7598 7.68945Q35.7598 6.95703 36.3193 6.50586Q36.8789 6.05469 37.6992 6.05469Q38.4727 6.05469 39.0234 6.37109L39.0234 6.98047Q38.3555 6.54688 37.6406 6.54688Q37.0488 6.54688 36.6855 6.85449Q36.3223 7.16211 36.3223 7.6543Q36.3223 8.08203 36.5508 8.34863Q36.7793 8.61523 37.5586 8.96094Q38.4961 9.38281 38.8477 9.74316Q39.1992 10.1035 39.1992 10.7012Q39.1992 11.416 38.6631 11.8818Q38.127 12.3477 37.1836 12.3477Q36.3164 12.3477 35.7363 11.9375ZM52.5352 12.3477Q51.2227 12.3477 50.458 11.4834Q49.6934 10.6191 49.6934 9.23633Q49.6934 7.74219 50.4932 6.89844Q51.293 6.05469 52.5996 6.05469Q53.8828 6.05469 54.627 6.89258Q55.3711 7.73047 55.3711 9.21289Q55.3711 10.6133 54.6123 11.4805Q53.8535 12.3477 52.5352 12.3477ZM70.3828 11.2871L70.3828 11.9375Q70.9629 12.3477 71.8301 12.3477Q72.7734 12.3477 73.3096 11.8818Q73.8457 11.416 73.8457 10.7012Q73.8457 10.1035 73.4941 9.74316Q73.1426 9.38281 72.2051 8.96094Q71.4258 8.61523 71.1973 8.34863Q70.9688 8.08203 70.9688 7.6543Q70.9688 7.16211 71.332 6.85449Q71.6953 6.54688 72.2871 6.54688Q73.002 6.54688 73.6699 6.98047L73.6699 6.37109Q73.1191 6.05469 72.3457 6.05469Q71.5254 6.05469 70.9658 6.50586Q70.4063 6.95703 70.4063 7.68945Q70.4063 8.26367 70.7549 8.66504Q71.1035 9.06641 71.9648 9.44141Q72.6621 9.74023 72.9727 10.0215Q73.2832 10.3027 73.2832 10.7012Q73.2832 11.8555 71.8711 11.8555Q71.5547 11.8555 71.1211 11.7031Q70.6875 11.5508 70.3828 11.2871ZM75.9141 11.1348L75.8906 11.1348L75.8906 14.9609L75.3516 14.9609L75.3516 6.20117L75.8906 6.20117L75.8906 7.4375L75.9141 7.4375Q76.2363 6.77539 76.8369 6.41504Q77.4375 6.05469 78.1582 6.05469Q79.3008 6.05469 79.9424 6.84277Q80.584 7.63086 80.584 8.98438Q80.584 10.4902 79.8486 11.4189Q79.1133 12.3477 77.9063 12.3477Q76.5586 12.3477 75.9141 11.1348ZM88.1191 12.2012L88.1191 11L88.0957 11Q87.8086 11.6152 87.2607 11.9814Q86.7129 12.3477 86.0449 12.3477Q85.1895 12.3477 84.6914 11.8672Q84.1934 11.3867 84.1934 10.6543Q84.1934 9.08398 86.2734 8.75586L88.1191 8.48047Q88.1191 6.54688 86.666 6.54688Q85.6758 6.54688 84.7383 7.34375L84.7383 6.69336Q85.0723 6.42969 85.6436 6.24219Q86.2148 6.05469 86.7188 6.05469Q87.6445 6.05469 88.1514 6.62891Q88.6582 7.20313 88.6582 8.29883L88.6582 12.2012L88.1191 12.2012ZM25.6055 6.20117L25.0664 6.20117L25.0664 12.2012L25.6055 12.2012L25.6055 6.20117ZM68.2324 6.20117L68.7715 6.20117L68.7715 12.2012L68.2324 12.2012L68.2324 6.20117ZM91.2012 14.627Q91.5996 14.2344 91.9277 13.4258L94.8516 6.20117L94.2656 6.20117L92.332 11.123L92.1914 11.5273L92.168 11.5273Q92.1387 11.4395 92.1152 11.3281Q92.0918 11.2461 92.0332 11.0879L90.2227 6.20117L89.6191 6.20117L91.8926 12.1543L91.3359 13.4844Q90.9199 14.4805 90.1992 14.4805Q89.918 14.4805 89.707 14.3984L89.707 14.9375Q89.9121 15.0195 90.1758 15.0195Q90.8027 15.0195 91.2012 14.627ZM10.2275 7.26172Q10.8574 6.54688 11.918 6.54688Q12.9844 6.54688 13.5674 7.23242Q14.1504 7.91797 14.1504 9.20117Q14.1504 10.4492 13.5645 11.1523Q12.9785 11.8555 11.8945 11.8555Q10.8281 11.8555 10.2129 11.1406Q9.59766 10.4258 9.59766 9.24805Q9.59766 7.97656 10.2275 7.26172ZM33.498 7.12109Q33.9609 7.69531 33.9961 8.73242L30.1406 8.73242Q30.2695 7.67773 30.8232 7.1123Q31.377 6.54688 32.2207 6.54688Q33.0352 6.54688 33.498 7.12109ZM52.5762 6.54688Q51.5156 6.54688 50.8857 7.26172Q50.2559 7.97656 50.2559 9.24805Q50.2559 10.4258 50.8711 11.1406Q51.4863 11.8555 52.5527 11.8555Q53.6367 11.8555 54.2227 11.1523Q54.8086 10.4492 54.8086 9.20117Q54.8086 7.91797 54.2256 7.23242Q53.6426 6.54688 52.5762 6.54688ZM75.8906 8.90234L75.8906 9.6582Q75.8906 10.5605 76.459 11.208Q77.0273 11.8555 77.9531 11.8555Q78.873 11.8555 79.4473 11.0674Q80.0215 10.2793 80.0215 8.99609Q80.0215 7.87109 79.4941 7.20898Q78.9668 6.54688 78.0879 6.54688Q77.0391 6.54688 76.4648 7.25Q75.8906 7.95313 75.8906 8.90234ZM86.4668 9.21289Q85.5234 9.34766 85.1426 9.64941Q84.7617 9.95117 84.7617 10.6309Q84.7617 11.1641 85.1162 11.5098Q85.4707 11.8555 86.1035 11.8555Q86.9707 11.8555 87.5449 11.2139Q88.1191 10.5723 88.1191 9.55859L88.1191 8.97266L86.4668 9.21289Z" />
  </g>
  <g id="Mask-group" transform="translate(103 6)">
    <path d="M0 13C0 5.8203 6.26801 0 14 0C21.732 0 28 5.8203 28 13C28 20.1797 21.732 26 14 26C6.26801 26 0 20.1797 0 13Z" id="Oval" fill="none" stroke="#808080" stroke-opacity="0.5294118" stroke-width="1" />
    <g clip-path="url(#mask_1)">
      <path d="M0 9.96666C0 4.46223 4.02944 0 9 0C13.9706 0 18 4.46223 18 9.96666C18 15.4711 13.9706 19.9333 9 19.9333C4.02944 19.9333 0 15.4711 0 9.96666Z" transform="translate(5 17.33333)" id="Oval" fill="none" stroke="#808080" stroke-opacity="0.5294118" stroke-width="1" />
    </g>
  </g>
  <path d="M0 2C0 0.89543 0.671573 0 1.5 0C2.32843 0 3 0.89543 3 2C3 3.10457 2.32843 4 1.5 4C0.671573 4 0 3.10457 0 2Z" transform="translate(111 14)" id="Oval" fill="#808080" fill-opacity="0.509803951" stroke="none" />
  <path d="M0 2C0 0.89543 0.671573 0 1.5 0C2.32843 0 3 0.89543 3 2C3 3.10457 2.32843 4 1.5 4C0.671573 4 0 3.10457 0 2Z" transform="translate(120 14)" id="Oval-copy" fill="#808080" fill-opacity="0.509803951" stroke="none" />
</svg>