<?xml version="1.0" encoding="utf-8"?>
<svg width="139px" height="157px" viewBox="0 0 139 157" version="1.1" xmlns:xlink="http://www.w3.org/1999/xlink" xmlns="http://www.w3.org/2000/svg">
  <desc>Created with Lunacy</desc>
  <path d="M10 0L129 0Q129.256 0 129.511 0.0116575Q129.765 0.023315 130.017 0.0466062Q130.269 0.0698974 130.519 0.104775Q130.768 0.139652 131.014 0.186045Q131.261 0.232437 131.503 0.29025Q131.745 0.348063 131.984 0.417178Q132.222 0.486294 132.455 0.566571Q132.689 0.646847 132.917 0.738122Q133.145 0.829396 133.367 0.931482Q133.59 1.03357 133.806 1.14626Q134.023 1.25895 134.232 1.38201Q134.442 1.50507 134.645 1.63826Q134.848 1.77144 135.043 1.91448Q135.238 2.05751 135.426 2.21011Q135.613 2.3627 135.793 2.52454Q135.972 2.68638 136.143 2.85714Q136.314 3.0279 136.475 3.20723Q136.637 3.38656 136.79 3.57409Q136.943 3.76162 137.086 3.95697Q137.229 4.15232 137.362 4.3551Q137.495 4.55787 137.618 4.76765Q137.741 4.97743 137.854 5.1938Q137.966 5.41016 138.069 5.63266Q138.171 5.85516 138.262 6.08335Q138.353 6.31153 138.433 6.54494Q138.514 6.77835 138.583 7.01649Q138.652 7.25464 138.71 7.49705Q138.768 7.73946 138.814 7.98563Q138.86 8.2318 138.895 8.48123Q138.93 8.73066 138.953 8.98284Q138.977 9.23502 138.988 9.48944Q139 9.74386 139 10L139 147Q139 147.256 138.988 147.511Q138.977 147.765 138.953 148.017Q138.93 148.269 138.895 148.519Q138.86 148.768 138.814 149.014Q138.768 149.261 138.71 149.503Q138.652 149.745 138.583 149.984Q138.514 150.222 138.433 150.455Q138.353 150.688 138.262 150.917Q138.171 151.145 138.069 151.367Q137.966 151.59 137.854 151.806Q137.741 152.023 137.618 152.232Q137.495 152.442 137.362 152.645Q137.229 152.848 137.086 153.043Q136.943 153.238 136.79 153.426Q136.637 153.613 136.475 153.793Q136.314 153.972 136.143 154.143Q135.972 154.314 135.793 154.475Q135.613 154.637 135.426 154.79Q135.238 154.942 135.043 155.086Q134.848 155.229 134.645 155.362Q134.442 155.495 134.232 155.618Q134.023 155.741 133.806 155.854Q133.59 155.966 133.367 156.069Q133.145 156.171 132.917 156.262Q132.689 156.353 132.455 156.433Q132.222 156.514 131.984 156.583Q131.745 156.652 131.503 156.71Q131.261 156.768 131.014 156.814Q130.768 156.86 130.519 156.895Q130.269 156.93 130.017 156.953Q129.765 156.977 129.511 156.988Q129.256 157 129 157L10 157Q9.74386 157 9.48944 156.988Q9.23502 156.977 8.98284 156.953Q8.73066 156.93 8.48123 156.895Q8.2318 156.86 7.98563 156.814Q7.73946 156.768 7.49705 156.71Q7.25464 156.652 7.01649 156.583Q6.77835 156.514 6.54494 156.433Q6.31153 156.353 6.08335 156.262Q5.85516 156.171 5.63266 156.069Q5.41016 155.966 5.1938 155.854Q4.97743 155.741 4.76765 155.618Q4.55787 155.495 4.3551 155.362Q4.15232 155.229 3.95697 155.086Q3.76162 154.942 3.57409 154.79Q3.38656 154.637 3.20723 154.475Q3.0279 154.314 2.85714 154.143Q2.68638 153.972 2.52454 153.793Q2.3627 153.613 2.21011 153.426Q2.05751 153.238 1.91448 153.043Q1.77144 152.848 1.63826 152.645Q1.50507 152.442 1.38201 152.232Q1.25895 152.023 1.14626 151.806Q1.03357 151.59 0.931482 151.367Q0.829396 151.145 0.738122 150.917Q0.646847 150.688 0.566571 150.455Q0.486294 150.222 0.417178 149.984Q0.348063 149.745 0.29025 149.503Q0.232437 149.261 0.186045 149.014Q0.139652 148.768 0.104775 148.519Q0.0698974 148.269 0.0466062 148.017Q0.023315 147.765 0.0116575 147.511Q0 147.256 0 147L0 10Q0 9.74386 0.0116575 9.48944Q0.023315 9.23502 0.0466062 8.98284Q0.0698974 8.73066 0.104775 8.48123Q0.139652 8.2318 0.186045 7.98563Q0.232437 7.73946 0.29025 7.49705Q0.348063 7.25464 0.417178 7.01649Q0.486294 6.77835 0.566571 6.54494Q0.646847 6.31153 0.738122 6.08335Q0.829396 5.85516 0.931482 5.63266Q1.03357 5.41016 1.14626 5.1938Q1.25895 4.97743 1.38201 4.76765Q1.50507 4.55787 1.63826 4.3551Q1.77144 4.15232 1.91448 3.95697Q2.05751 3.76162 2.21011 3.57409Q2.3627 3.38656 2.52454 3.20723Q2.68638 3.0279 2.85714 2.85714Q3.0279 2.68638 3.20723 2.52454Q3.38656 2.3627 3.57409 2.21011Q3.76162 2.05751 3.95697 1.91448Q4.15232 1.77144 4.3551 1.63826Q4.55787 1.50507 4.76765 1.38201Q4.97743 1.25895 5.1938 1.14626Q5.41016 1.03357 5.63266 0.931482Q5.85516 0.829396 6.08335 0.738122Q6.31153 0.646847 6.54494 0.566571Q6.77835 0.486294 7.01649 0.417178Q7.25464 0.348063 7.49705 0.29025Q7.73946 0.232437 7.98563 0.186045Q8.2318 0.139652 8.48123 0.104775Q8.73066 0.0698974 8.98284 0.0466062Q9.23502 0.023315 9.48944 0.0116575Q9.74386 0 10 0Z" id="Rectangle-copy" fill="#EEE5E5" stroke="#808080" stroke-width="2" />
  <path d="M1 0L7.17647 0Q7.27919 0 7.37791 0.0186045Q7.47663 0.037209 7.56814 0.0738122Q7.65965 0.110415 7.74096 0.163826Q7.82228 0.217236 7.89076 0.285714Q7.95924 0.354193 8.01265 0.43551Q8.06606 0.516827 8.10266 0.608335Q8.13926 0.699843 8.15787 0.798563Q8.17647 0.897283 8.17647 1L8.17647 35.0143Q8.17647 35.1171 8.15787 35.2158Q8.13926 35.3145 8.10266 35.406Q8.06606 35.4975 8.01265 35.5788Q7.95924 35.6601 7.89076 35.7286Q7.82228 35.7971 7.74096 35.8505Q7.65965 35.9039 7.56814 35.9405Q7.47663 35.9771 7.37791 35.9957Q7.27919 36.0143 7.17647 36.0143L1 36.0143Q0.897283 36.0143 0.798563 35.9957Q0.699843 35.9771 0.608335 35.9405Q0.516827 35.9039 0.43551 35.8505Q0.354193 35.7971 0.285714 35.7286Q0.217236 35.6601 0.163826 35.5788Q0.110415 35.4975 0.0738122 35.406Q0.037209 35.3145 0.0186045 35.2158Q0 35.1171 0 35.0143L0 1Q0 0.897283 0.0186045 0.798563Q0.037209 0.699843 0.0738122 0.608335Q0.110415 0.516827 0.163826 0.43551Q0.217236 0.354193 0.285714 0.285714Q0.354193 0.217236 0.43551 0.163826Q0.516827 0.110415 0.608335 0.0738122Q0.699843 0.037209 0.798563 0.0186045Q0.897283 0 1 0Z" transform="translate(109.5648 5.627258)" id="Rectangle" fill="#808080" stroke="none" />
  <path d="M0 0L9.75034e-08 0L9.75034e-08 4.29467e-07L0 4.29467e-07L0 0Z" transform="matrix(1 8.656988E+07 -8.123162E+07 1 130.8235 19.41397)" id="Rectangle-copy" fill="#808080" stroke="none" />
  <path d="M0 0L96.4824 0L96.4824 2.81362L0 2.81362L0 0Z" transform="translate(21.25882 137.8674)" id="Rectangle-copy-copy-copy-copy-copy-copy-copy" fill="none" stroke="#808080" stroke-opacity="0.368627459" stroke-width="1" />
  <path d="M0 0L96.4824 0L96.4824 2.81362L0 2.81362L0 0Z" transform="translate(21.25882 123.2366)" id="Rectangle-copy-copy-copy-copy-copy-copy-copy-copy" fill="none" stroke="#808080" stroke-opacity="0.368627459" stroke-width="1" />
  <path d="M0 0L96.4824 0L96.4824 2.81362L0 2.81362L0 0Z" transform="translate(21.25882 109.7312)" id="Rectangle-copy-copy-copy-copy-copy-copy-copy-copy-copy" fill="none" stroke="#808080" stroke-opacity="0.368627459" stroke-width="1" />
  <path d="M0 0L96.4824 0L96.4824 2.81362L0 2.81362L0 0Z" transform="translate(21.25882 96.2258)" id="Rectangle-copy-copy-copy-copy-copy-copy-copy-copy-copy-copy" fill="none" stroke="#808080" stroke-opacity="0.368627459" stroke-width="1" />
  <path d="M0 0L96.4824 0L96.4824 2.81362L0 2.81362L0 0Z" transform="translate(21.25882 81.595)" id="Rectangle-copy-copy-copy-copy-copy-copy-copy-copy-copy-copy-copy" fill="none" stroke="#808080" stroke-opacity="0.368627459" stroke-width="1" />
  <path d="M0 0L96.4824 0L96.4824 2.81362L0 2.81362L0 0Z" transform="translate(21.25882 66.40143)" id="Rectangle-copy-copy-copy-copy-copy-copy-copy-copy-copy-copy-copy-copy" fill="none" stroke="#808080" stroke-opacity="0.368627459" stroke-width="1" />
  <path d="M0 0L69.2274 0L69.2274 2.81362L0 2.81362L0 0Z" transform="translate(21.25882 31.51254)" id="Rectangle-copy-copy-copy-copy-copy-copy-copy-copy-copy-copy-copy-copy-copy" fill="none" stroke="#808080" stroke-opacity="0.368627459" stroke-width="1" />
  <path d="M0 0L86.1255 0L86.1255 2.81362L0 2.81362L0 0Z" transform="translate(21.25882 50.64517)" id="Rectangle-copy-copy-copy-copy-copy-copy-copy-copy-copy-copy-copy-copy-copy" fill="none" stroke="#808080" stroke-opacity="0.368627459" stroke-width="1" />
</svg>