<?xml version="1.0" encoding="utf-8"?>
<svg width="85px" height="84px" viewBox="0 0 85 84" version="1.1" xmlns:xlink="http://www.w3.org/1999/xlink" xmlns="http://www.w3.org/2000/svg">
  <desc>Created with Lunacy</desc>
  <defs>
    <path d="M0 42C0 18.804 19.0279 0 42.5 0C65.9721 0 85 18.804 85 42C85 65.196 65.9721 84 42.5 84C19.0279 84 0 65.196 0 42Z" id="path_1" />
    <clipPath id="mask_1">
      <use xlink:href="#path_1" />
    </clipPath>
  </defs>
  <g id="Group">
    <g id="Mask-group">
      <path d="M0 42C0 18.804 19.0279 0 42.5 0C65.9721 0 85 18.804 85 42C85 65.196 65.9721 84 42.5 84C19.0279 84 0 65.196 0 42Z" id="Oval" fill="#FFFFFF" stroke="none" />
      <g clip-path="url(#mask_1)">
        <path d="M0 33.6506C0 15.0659 13.8697 0 30.9789 0C48.0881 0 61.9578 15.0659 61.9578 33.6506C61.9578 52.2352 48.0881 67.3011 30.9789 67.3011C13.8697 67.3011 0 52.2352 0 33.6506Z" transform="translate(11.52109 42)" id="Oval-copy" fill="#FFFFFF" stroke="#808080" stroke-width="3" />
        <path d="M0 10.1205C0 4.53109 4.58503 0 10.2409 0C15.8969 0 20.4819 4.53109 20.4819 10.1205C20.4819 15.7099 15.8969 20.241 10.2409 20.241C4.58503 20.241 0 15.7099 0 10.1205Z" transform="translate(32.25903 21.75904)" id="Oval" fill="#FFFFFF" stroke="#808080" stroke-width="3" />
      </g>
    </g>
  </g>
  <g id="Logout" fill="#3E72A4" transform="translate(17 53)">
    <path d="M1.17188 9.0293L1.17188 19.0293L6.91406 19.0293L7.01172 17.9746L3.21289 17.9746L3.21289 9.0293L1.17188 9.0293ZM46.1328 13.0332L46.8848 13.2676L46.8848 17.8574Q46.8848 18.2676 47.0068 18.5215Q47.1289 18.7754 47.3291 18.917Q47.5293 19.0586 47.7832 19.1074Q48.0371 19.1563 48.3008 19.1563Q48.6426 19.1563 49.0234 19.0781Q49.4043 19 49.7705 18.8779Q50.1367 18.7559 50.4688 18.6045Q50.8008 18.4531 51.0547 18.2969L51.0547 17.7402Q50.918 17.7598 50.7129 17.7842Q50.5078 17.8086 50.2979 17.8281Q50.0879 17.8477 49.8975 17.8623Q49.707 17.877 49.5898 17.877Q49.1504 17.877 49.0186 17.6377Q48.8867 17.3984 48.8867 17.0371L48.8867 13.2773Q49.2773 13.2578 49.6582 13.2188Q49.9805 13.1895 50.3223 13.1553Q50.6641 13.1211 50.9082 13.082L50.9961 12.3496L48.877 12.3496L48.8477 11.1777L48.3008 11.1777L46.1328 12.623L46.1328 13.0332ZM9.88672 18.2725Q10.7949 19.1563 12.5137 19.1563Q13.3828 19.1563 14.042 18.917Q14.7012 18.6777 15.1455 18.2236Q15.5898 17.7695 15.8145 17.125Q16.0391 16.4805 16.0391 15.6699Q16.0391 14.8398 15.8145 14.1953Q15.5898 13.5508 15.1455 13.1064Q14.7012 12.6621 14.042 12.4326Q13.3828 12.2031 12.5137 12.2031Q11.6445 12.2031 10.9805 12.4473Q10.3164 12.6914 9.87207 13.1406Q9.42773 13.5898 9.20313 14.2393Q8.97852 14.8887 8.97852 15.6895Q8.97852 17.3887 9.88672 18.2725ZM20.7012 23.6875Q19.998 23.6875 19.5146 23.5703Q19.0313 23.4531 18.7285 23.2529Q18.4258 23.0527 18.2939 22.7891Q18.1621 22.5254 18.1621 22.2324Q18.1621 21.9785 18.2598 21.7637Q18.3574 21.5488 18.5332 21.3633Q18.709 21.1777 18.9482 21.0117Q19.1875 20.8457 19.4805 20.6992L19.959 20.8164Q19.8906 21.0313 19.8662 21.2021Q19.8418 21.373 19.8418 21.5879Q19.8418 22.0371 20.1689 22.3105Q20.4961 22.584 21.1309 22.584Q21.4238 22.584 21.7168 22.5547Q22.0098 22.5254 22.2832 22.4717Q22.5566 22.418 22.7861 22.3447Q23.0156 22.2715 23.1816 22.1836Q23.416 22.0566 23.4795 21.7979Q23.543 21.5391 23.543 21.168Q23.543 20.4258 21.9707 20.4258L20.8574 20.416Q19.666 20.4063 19.1191 20.084Q18.5723 19.7617 18.5723 19Q18.5723 18.7461 18.6846 18.502Q18.7969 18.2578 18.9727 18.0283Q19.1484 17.7988 19.3584 17.5986Q19.5684 17.3984 19.7637 17.2422Q19.4609 17.1055 19.1924 16.8857Q18.9238 16.666 18.7188 16.373Q18.5137 16.0801 18.3916 15.709Q18.2695 15.3379 18.2695 14.9082Q18.2695 14.2734 18.499 13.7705Q18.7285 13.2676 19.1387 12.9209Q19.5488 12.5742 20.1104 12.3887Q20.6719 12.2031 21.3262 12.2031Q21.873 12.2031 22.293 12.2617Q22.7129 12.3203 23.123 12.4277Q23.3867 12.418 23.6797 12.3984Q23.9727 12.3789 24.2656 12.3496Q24.5586 12.3203 24.832 12.2861Q25.1055 12.252 25.3301 12.2031L25.1836 13.0723Q24.959 13.1504 24.6074 13.1943Q24.2559 13.2383 23.9727 13.2383Q24.1094 13.4629 24.2607 13.8535Q24.4121 14.2441 24.4121 14.8594Q24.4121 15.4941 24.1826 15.9824Q23.9531 16.4707 23.5479 16.8027Q23.1426 17.1348 22.5859 17.3057Q22.0293 17.4766 21.3652 17.4766Q21.1504 17.4766 20.8574 17.4619Q20.5645 17.4473 20.3984 17.3984Q20.3203 17.5156 20.2373 17.7207Q20.1543 17.9258 20.1543 18.1211Q20.1543 18.3555 20.3936 18.4385Q20.6328 18.5215 21.2383 18.5215L22.8301 18.5215Q23.5527 18.5215 24.041 18.6338Q24.5293 18.7461 24.832 18.9756Q25.1348 19.2051 25.2617 19.5566Q25.3887 19.9082 25.3887 20.3965Q25.3887 20.9824 25.0371 21.5732Q24.6855 22.1641 24.0605 22.6328Q23.4355 23.1016 22.5762 23.3945Q21.7168 23.6875 20.7012 23.6875ZM28.2246 18.2725Q29.1328 19.1563 30.8516 19.1563Q31.7207 19.1563 32.3799 18.917Q33.0391 18.6777 33.4834 18.2236Q33.9277 17.7695 34.1523 17.125Q34.377 16.4805 34.377 15.6699Q34.377 14.8398 34.1523 14.1953Q33.9277 13.5508 33.4834 13.1064Q33.0391 12.6621 32.3799 12.4326Q31.7207 12.2031 30.8516 12.2031Q29.9824 12.2031 29.3184 12.4473Q28.6543 12.6914 28.21 13.1406Q27.7656 13.5898 27.541 14.2393Q27.3164 14.8887 27.3164 15.6895Q27.3164 17.3887 28.2246 18.2725ZM39.0879 12.3496L39.0879 16.832Q39.0879 17.4277 39.2881 17.7109Q39.4883 17.9941 39.9668 17.9941Q40.1426 17.9941 40.3477 17.9502Q40.5527 17.9063 40.7676 17.8232Q40.9824 17.7402 41.1924 17.6377Q41.4023 17.5352 41.5684 17.418L41.5684 12.3496L43.5703 12.3496L43.5703 19.0293L41.7832 19.0293L41.5977 18.248L41.5781 18.248Q41.373 18.375 41.0801 18.5361Q40.7871 18.6973 40.4453 18.8389Q40.1035 18.9805 39.7373 19.0781Q39.3711 19.1758 39.0195 19.1758Q38.6191 19.1758 38.2676 19.0537Q37.916 18.9316 37.6523 18.6826Q37.3887 18.4336 37.2373 18.0674Q37.0859 17.7012 37.0859 17.2031L37.0859 12.3496L39.0879 12.3496ZM21.3848 16.5879Q21.6582 16.5879 21.8389 16.5439Q22.0195 16.5 22.166 16.4121Q22.3125 16.3242 22.4053 15.9043Q22.498 15.4844 22.498 14.8301Q22.498 14.4688 22.4248 14.1514Q22.3516 13.834 22.21 13.5996Q22.0684 13.3652 21.8535 13.2334Q21.6387 13.1016 21.3555 13.1016Q21.1016 13.1016 20.9307 13.1406Q20.7598 13.1797 20.6133 13.2773Q20.457 13.3848 20.3643 13.79Q20.2715 14.1953 20.2715 14.8691Q20.2715 15.2207 20.3447 15.5332Q20.418 15.8457 20.5596 16.0801Q20.7012 16.3145 20.9063 16.4512Q21.1113 16.5879 21.3848 16.5879ZM11.3906 17.6084Q11.0586 16.9883 11.0586 15.6797Q11.0586 15.2598 11.083 14.8643Q11.1074 14.4688 11.1611 14.1563Q11.2148 13.8438 11.293 13.6338Q11.3711 13.4238 11.4883 13.3652Q11.7031 13.248 11.9766 13.1943Q12.25 13.1406 12.5332 13.1406Q13.2852 13.1406 13.627 13.7754Q13.9688 14.4102 13.9688 15.6895Q13.9688 16.1289 13.9346 16.5293Q13.9004 16.9297 13.8418 17.2422Q13.7832 17.5547 13.6953 17.7646Q13.6074 17.9746 13.5 18.0332Q13.3242 18.1309 13.0605 18.1797Q12.7969 18.2285 12.4941 18.2285Q11.7227 18.2285 11.3906 17.6084ZM29.7285 17.6084Q29.3965 16.9883 29.3965 15.6797Q29.3965 15.2598 29.4209 14.8643Q29.4453 14.4688 29.499 14.1563Q29.5527 13.8438 29.6309 13.6338Q29.709 13.4238 29.8262 13.3652Q30.041 13.248 30.3145 13.1943Q30.5879 13.1406 30.8711 13.1406Q31.623 13.1406 31.9648 13.7754Q32.3066 14.4102 32.3066 15.6895Q32.3066 16.1289 32.2725 16.5293Q32.2383 16.9297 32.1797 17.2422Q32.1211 17.5547 32.0332 17.7646Q31.9453 17.9746 31.8379 18.0332Q31.6621 18.1309 31.3984 18.1797Q31.1348 18.2285 30.832 18.2285Q30.0605 18.2285 29.7285 17.6084Z" />
  </g>
</svg>